<?xml version="1.0" encoding="utf-8"?>
<!-- Generator: Adobe Illustrator 24.1.0, SVG Export Plug-In . SVG Version: 6.00 Build 0)  -->
<svg version="1.1" id="Layer_1" xmlns="http://www.w3.org/2000/svg" xmlns:xlink="http://www.w3.org/1999/xlink" x="0px" y="0px"
	 viewBox="0 0 595.28 594.8" style="enable-background:new 0 0 595.28 594.8;" xml:space="preserve">
<style type="text/css">
	.st0{fill:#FFFFFF;}
</style>
<g>
	<path class="st0" d="M119.44,443.07c-7.36-11.12-13.32-22.86-16.82-35.67c-13.38-49-2.49-91.67,33.37-127.91
		c11.06-11.18,21.66-22.81,32.9-34.69c-4.11-4.03-9.4-9.2-14.67-14.38c-2.05-2.02-4.11-4.04-6.11-6.11
		c-8.78-9.1-8.82-22.67-0.12-31.38c9.05-9.06,22.87-9.27,31.99-0.25c15.96,15.79,31.79,31.71,47.67,47.58
		c42.55,42.51,85.1,85.02,127.65,127.54c15.46,15.45,31.06,30.75,46.28,46.42c12.02,12.38,7.04,32.12-9.11,37.2
		c-8.72,2.75-16.39,0.5-22.84-5.72c-6.57-6.33-12.92-12.88-19.38-19.33c-0.58-0.58-1.25-1.08-2.37-2.03
		c-11.81,12.21-23.45,24.48-35.38,36.45c-4.38,4.4-9.2,8.46-14.24,12.1c-25.96,18.76-54.99,27.41-86.99,25.02
		c-20.84-1.56-40.04-8.34-57.43-20.05c-0.8-0.54-1.58-1.09-2.38-1.62c-0.2-0.13-0.43-0.2-0.93-0.43
		c-7.81,7.8-15.7,15.67-23.59,23.55C100.71,525.58,74.51,551.85,48.2,578c-11.92,11.85-30.47,8.61-37.05-6.41
		c-3.17-7.24-2.23-17.99,4.84-24.98c17.07-16.89,33.98-33.93,50.96-50.91c16.9-16.89,33.81-33.77,50.7-50.66
		C118.25,444.45,118.78,443.81,119.44,443.07z"/>
	<path class="st0" d="M425.15,349.3c5.31,5.28,11.36,10.92,16.96,16.98c3.36,3.64,6.88,7.57,8.77,12.02
		c4.06,9.58,0.37,20.01-8.17,26c-8.23,5.78-19.67,5.37-27.33-1.52c-6.15-5.53-11.85-11.57-17.71-17.42
		c-68.09-68.07-136.18-136.14-204.26-204.22c-9.84-9.84-10.29-23.27-1.22-32.37c9.13-9.16,23.2-8.97,32.87,0.51
		c6.86,6.72,13.63,13.53,20.44,20.3c0.08,0.08,0.21,0.12,0.55,0.31c0.63-0.51,1.38-1.04,2.03-1.68
		c10.06-9.97,20.42-19.66,30.1-29.99c28.82-30.78,64.43-44.1,106.09-41.28c20.46,1.38,39.29,8.41,56.35,19.93
		c0.98,0.66,1.97,1.32,3.54,2.37c4.73-4.89,9.39-9.85,14.21-14.66c29.1-29.13,58.27-58.2,87.34-87.36c7.3-7.32,16-9.37,25.43-6.11
		c15.44,5.34,19.42,24.7,7.75,36.49c-16.81,16.97-33.75,33.82-50.65,50.71c-16.98,16.97-33.94,33.97-51.01,50.85
		c-1.99,1.96-1.84,3.2-0.43,5.39c28.76,44.7,27.64,101.71-3.89,143.91c-9.12,12.21-20.99,22.36-31.55,33.49
		C435.99,337.59,430.73,343.32,425.15,349.3z"/>
</g>
</svg>
