<?xml version="1.0" encoding="utf-8"?>
<!-- Generator: Adobe Illustrator 24.1.0, SVG Export Plug-In . SVG Version: 6.00 Build 0)  -->
<svg version="1.1" id="Layer_1" xmlns="http://www.w3.org/2000/svg" xmlns:xlink="http://www.w3.org/1999/xlink" x="0px" y="0px"
	 viewBox="0 0 141.07 10.57" style="enable-background:new 0 0 141.07 10.57;" xml:space="preserve">
<style type="text/css">
	.st0{fill:#FFFFFF;}
</style>
<g>
	<path class="st0" d="M0,3h1.57v3H3V4.5h1.5V3h4.57v1.57h-4.5v1.5h-1.5v1.5h-1.5v3H0V3z"/>
	<path class="st0" d="M13.5,3h4.57v1.5h1.5V9h1.5v1.57H13.5v-1.5H12V7.5h1.5V6H18V4.57h-4.5V3z M13.57,9H18V7.57h-4.43V9z"/>
	<path class="st0" d="M27,1.5h1.57v1.57H27V1.5z M27,4.5h1.57v6.07H27V4.5z"/>
	<path class="st0" d="M36,6h1.5V4.5h6V0h1.57v10.57H37.5v-1.5H36V6z M37.57,9h5.93V6.07h-5.93V9z"/>
	<path class="st0" d="M48,7.5h3.07v3.07H48V7.5z"/>
	<path class="st0" d="M61.5,3h6.07v1.5h1.5v6.07H67.5v-6h-4.43v6H61.5V3z"/>
	<path class="st0" d="M72,4.5h1.5V3h6.07v1.5h1.5v3.07h-7.5V9h7.5v1.57H73.5v-1.5H72V4.5z M73.57,6h5.93V4.57h-5.93V6z"/>
	<path class="st0" d="M84,3h3V1.5h1.57V3h3v1.57h-3V9h3v1.57H88.5v-1.5H87v-4.5h-3V3z"/>
	<path class="st0" d="M94.5,3h1.57v6h1.43V7.5H99v-3h1.57v3h1.5V9h1.43V3h1.57v6.07h-1.5v1.5H102v-1.5h-1.5v-1.5h-1.43v1.5h-1.5v1.5
		H96v-1.5h-1.5V3z"/>
	<path class="st0" d="M108,4.5h1.5V3h6.07v1.5h1.5v4.57h-1.5v1.5h-6.07v-1.5H108V4.5z M109.57,9h5.93V4.57h-5.93V9z"/>
	<path class="st0" d="M120,3h1.57v3H123V4.5h1.5V3h4.57v1.57h-4.5v1.5h-1.5v1.5h-1.5v3H120V3z"/>
	<path class="st0" d="M132,0h1.57v6H135V4.5h3V3h3.07v1.57h-3v1.5h-3V7.5h3V9h3v1.57H138v-1.5h-3v-1.5h-1.43v3H132V0z"/>
</g>
</svg>
